<mxfile host="app.diagrams.net" modified="2021-12-07T19:45:34.412Z" agent="5.0 (Macintosh; Intel Mac OS X 10_15_7) AppleWebKit/537.36 (KHTML, like Gecko) Chrome/96.0.4664.55 Safari/537.36" etag="GsxWGMpVhz1rG5LOoa42" version="15.9.1" type="github">
  <diagram id="tND_tBShEbsj4f78IOFj" name="Page-1">
    <mxGraphModel dx="1054" dy="698" grid="1" gridSize="10" guides="1" tooltips="1" connect="1" arrows="1" fold="1" page="1" pageScale="1" pageWidth="850" pageHeight="1100" math="0" shadow="0">
      <root>
        <mxCell id="0" />
        <mxCell id="1" parent="0" />
        <mxCell id="Ben7Rwewzs3mKR0b3PrG-1" value="Transform" style="whiteSpace=wrap;html=1;aspect=fixed;" vertex="1" parent="1">
          <mxGeometry x="190" y="190" width="150" height="150" as="geometry" />
        </mxCell>
        <mxCell id="Ben7Rwewzs3mKR0b3PrG-2" value="input" style="whiteSpace=wrap;html=1;aspect=fixed;" vertex="1" parent="1">
          <mxGeometry x="40" y="190" width="150" height="150" as="geometry" />
        </mxCell>
        <mxCell id="Ben7Rwewzs3mKR0b3PrG-3" value="output" style="whiteSpace=wrap;html=1;aspect=fixed;" vertex="1" parent="1">
          <mxGeometry x="340" y="190" width="150" height="150" as="geometry" />
        </mxCell>
      </root>
    </mxGraphModel>
  </diagram>
</mxfile>
